<svg width="64" height="64" viewBox="0 0 64 64" fill="none" xmlns="http://www.w3.org/2000/svg">
<g filter="url(#filter0_d_5004_215)">
<circle cx="32" cy="32" r="20" fill="#61B4FF"/>
<circle cx="32" cy="32" r="19.5" stroke="white"/>
</g>
<g clip-path="url(#clip0_5004_215)">
<path d="M46.3489 31.7146L40.0635 25.4292L39.0882 26.4045L44.3982 31.7146L39.0882 37.0247L40.0635 38L46.3489 31.7146Z" fill="white"/>
<path d="M42.5706 31.7146L36.2852 25.4292L35.3098 26.4045L40.6199 31.7146L35.3098 37.0247L36.2852 38L42.5706 31.7146Z" fill="white"/>
</g>
<g clip-path="url(#clip1_5004_215)">
<path d="M17.6511 32.2854L23.9365 38.5708L24.9118 37.5955L19.6018 32.2854L24.9118 26.9753L23.9365 26L17.6511 32.2854Z" fill="white"/>
<path d="M20.9998 32.2854L27.2852 38.5708L28.2605 37.5955L22.9504 32.2854L28.2605 26.9753L27.2852 26L20.9998 32.2854Z" fill="white"/>
</g>
<defs>
<filter id="filter0_d_5004_215" x="0" y="0" width="64" height="64" filterUnits="userSpaceOnUse" color-interpolation-filters="sRGB">
<feFlood flood-opacity="0" result="BackgroundImageFix"/>
<feColorMatrix in="SourceAlpha" type="matrix" values="0 0 0 0 0 0 0 0 0 0 0 0 0 0 0 0 0 0 127 0" result="hardAlpha"/>
<feOffset/>
<feGaussianBlur stdDeviation="6"/>
<feColorMatrix type="matrix" values="0 0 0 0 0.2975 0 0 0 0 0.664393 0 0 0 0 1 0 0 0 1 0"/>
<feBlend mode="normal" in2="BackgroundImageFix" result="effect1_dropShadow_5004_215"/>
<feBlend mode="normal" in="SourceGraphic" in2="effect1_dropShadow_5004_215" result="shape"/>
</filter>
<clipPath id="clip0_5004_215">
<rect width="20" height="20" fill="white" transform="translate(32 42) rotate(-90)"/>
</clipPath>
<clipPath id="clip1_5004_215">
<rect width="20" height="20" fill="white" transform="translate(32 22) rotate(90)"/>
</clipPath>
</defs>
</svg>
