<svg width="36" height="36" viewBox="0 0 36 36" fill="none" xmlns="http://www.w3.org/2000/svg">
<g clip-path="url(#clip0_96_1208)">
<path d="M18 33.3516C26.4785 33.3516 33.3516 26.4785 33.3516 18C33.3516 9.52158 26.4785 2.64844 18 2.64844C9.52158 2.64844 2.64844 9.52158 2.64844 18C2.64844 26.4785 9.52158 33.3516 18 33.3516Z" fill="url(#paint0_linear_96_1208)"/>
<path d="M31.4503 18C31.4503 17.4703 31.4193 16.948 31.3595 16.4344C31.2825 15.7739 31.5442 15.1191 32.044 14.6806L34.1017 12.8754C34.8001 12.2627 34.957 11.2367 34.4738 10.4432L32.273 6.83012C31.7898 6.03664 30.8061 5.70537 29.9413 6.04482L27.3763 7.05155C26.7554 7.29522 26.0577 7.20988 25.5046 6.83725C24.9104 6.43694 24.2824 6.08287 23.626 5.78012C23.0219 5.50151 22.5881 4.95042 22.4735 4.29515L21.9994 1.58301C21.8394 0.667765 21.0448 0 20.1157 0H15.8852C14.9561 0 14.1615 0.667765 14.0015 1.58294L13.5274 4.29508C13.4128 4.95035 12.9791 5.50151 12.375 5.78005C11.7185 6.0828 11.0906 6.43687 10.4963 6.83718C9.94322 7.20974 9.24545 7.29508 8.6247 7.05148L6.05959 6.04475C5.19475 5.70537 4.2111 6.03664 3.72785 6.83005L1.52719 10.4431C1.04395 11.2366 1.20086 12.2626 1.89926 12.8753L3.95691 14.6805C4.45675 15.119 4.71842 15.7739 4.64148 16.4343C4.58162 16.9479 4.5507 17.4703 4.5507 17.9999C4.5507 18.5296 4.58169 19.052 4.64148 19.5656C4.71842 20.226 4.45675 20.8808 3.95691 21.3193L1.89926 23.1246C1.20086 23.7373 1.04395 24.7633 1.52719 25.5568L3.72785 29.1698C4.2111 29.9633 5.19482 30.2946 6.05959 29.9551L8.62463 28.9484C9.24545 28.7047 9.94322 28.7901 10.4963 29.1627C11.0905 29.563 11.7184 29.9171 12.3749 30.2198C12.979 30.4984 13.4128 31.0495 13.5273 31.7048L14.0015 34.4169C14.1615 35.3322 14.9561 36 15.8852 36H20.1157C21.0448 36 21.8394 35.3322 21.9993 34.4171L22.4735 31.7049C22.588 31.0497 23.0218 30.4985 23.6259 30.22C24.2824 29.9172 24.9103 29.5631 25.5045 29.1628C26.0577 28.7903 26.7554 28.7049 27.3762 28.9485L29.9412 29.9552C30.8061 30.2947 31.7897 29.9634 32.273 29.17L34.4736 25.5569C34.9569 24.7634 34.7999 23.7374 34.1015 23.1247L32.0439 21.3195C31.5441 20.881 31.2824 20.2261 31.3593 19.5657C31.4193 19.052 31.4503 18.5297 31.4503 18Z" fill="url(#paint1_linear_96_1208)"/>
<path d="M18 28.9942C24.072 28.9942 28.9942 24.072 28.9942 18C28.9942 11.9281 24.072 7.00586 18 7.00586C11.9281 7.00586 7.00586 11.9281 7.00586 18C7.00586 24.072 11.9281 28.9942 18 28.9942Z" fill="url(#paint2_linear_96_1208)"/>
<path d="M21.9999 34.4171L22.4741 31.705C22.5886 31.0497 23.0224 30.4986 23.6265 30.22C24.283 29.9173 24.9109 29.5632 25.5051 29.1629C26.0583 28.7903 26.756 28.7049 27.3768 28.9486L29.9418 29.9553C30.8067 30.2948 31.7903 29.9634 32.2735 29.17L34.4742 25.5569C34.9575 24.7634 34.8005 23.7374 34.1021 23.1247L32.0445 21.3195C31.5447 20.881 31.283 20.2261 31.3599 19.5657C31.4198 19.0521 31.4507 18.5297 31.4507 18.0001C31.4507 17.4704 31.4197 16.948 31.3599 16.4344C31.283 15.774 31.5447 15.1191 32.0445 14.6806L32.3981 14.3705L26.8007 8.77304C25.7012 7.54227 24.1031 6.91064 22.3234 6.91064H17.0702C15.7088 6.91064 14.4529 7.36474 13.4458 8.12928C12.8912 7.82526 12.2539 7.65253 11.5769 7.65253C10.5002 7.65253 9.56129 8.05311 8.89155 8.72279C8.22181 9.39168 7.82129 10.3306 7.82129 11.4074V14.8696C7.82129 16.0623 8.35727 17.1294 9.20129 17.8445C8.52181 18.1201 8.04343 18.7866 8.04343 19.565V21.2126C8.04343 21.8491 8.21856 22.4102 8.70668 22.7442C8.83557 22.9331 9.96343 24.061 10.1523 24.1907C10.1637 24.207 10.3202 24.224 10.3323 24.2402C10.8091 25.2691 11.3386 26.187 12.1607 26.9475L20.9968 35.7836C21.5115 35.5158 21.8944 35.0211 21.9999 34.4171Z" fill="url(#paint3_linear_96_1208)"/>
<path d="M7.89844 21.2129V19.5648C7.89844 18.5396 8.72954 17.7085 9.75477 17.7085C10.78 17.7085 11.6111 18.5396 11.6111 19.5648V21.2129C11.6111 22.2381 10.78 23.0692 9.75477 23.0692C8.72954 23.0692 7.89844 22.2381 7.89844 21.2129Z" fill="url(#paint4_linear_96_1208)"/>
<path d="M24.3896 21.2129V19.5648C24.3896 18.5396 25.2208 17.7085 26.246 17.7085C27.2712 17.7085 28.1023 18.5396 28.1023 19.5648V21.2129C28.1023 22.2381 27.2712 23.0692 26.246 23.0692C25.2208 23.0692 24.3896 22.2381 24.3896 21.2129Z" fill="url(#paint5_linear_96_1208)"/>
<path d="M18.0005 29.2335C13.2454 29.2335 9.39062 25.3787 9.39062 20.6236V17.2656C9.39062 12.5105 13.2454 8.65576 18.0005 8.65576C22.7556 8.65576 26.6104 12.5105 26.6104 17.2656V20.6236C26.6104 25.3787 22.7556 29.2335 18.0005 29.2335Z" fill="url(#paint6_linear_96_1208)"/>
<path d="M18.0005 8.65576C13.2454 8.65576 9.39062 12.5105 9.39062 17.2656V18.0994L20.2321 28.9408C23.9053 27.9578 26.6104 24.6069 26.6104 20.6236V17.2656C26.6104 12.5105 22.7556 8.65576 18.0005 8.65576Z" fill="url(#paint7_linear_96_1208)"/>
<path d="M22.3241 6.76709H17.0707C15.7091 6.76709 14.4535 7.2209 13.4465 7.98509C12.8915 7.68128 12.2545 7.50834 11.5772 7.50834C9.42359 7.50834 7.67773 9.25419 7.67773 11.4078V14.8697C7.67773 17.0233 9.42359 18.7691 11.5772 18.7691C12.4928 18.7691 13.3341 18.4527 13.9995 17.9243C14.898 18.4607 15.9482 18.7691 17.0706 18.7691H22.324C25.6383 18.7691 28.3251 16.0824 28.3251 12.7681C28.3251 9.45382 25.6383 6.76709 22.3241 6.76709Z" fill="url(#paint8_linear_96_1208)"/>
<path d="M11.0687 12.7681C11.0687 10.8155 12.0015 9.08094 13.4455 7.98505C12.8905 7.68124 12.2536 7.5083 11.5762 7.5083C9.42261 7.5083 7.67676 9.25416 7.67676 11.4077V14.8697C7.67676 17.0232 9.42261 18.7691 11.5762 18.7691C12.4919 18.7691 13.3331 18.4527 13.9985 17.9243C12.244 16.8771 11.0687 14.96 11.0687 12.7681Z" fill="url(#paint9_linear_96_1208)"/>
<path d="M15.432 22.1062C15.432 22.7912 14.8767 23.3466 14.1915 23.3466C13.5065 23.3466 12.9512 22.7912 12.9512 22.1062C12.9512 21.4211 13.5065 20.8657 14.1915 20.8657C14.8766 20.8658 15.432 21.4211 15.432 22.1062Z" fill="url(#paint10_linear_96_1208)"/>
<path d="M14.7465 20.9966C14.8302 21.1635 14.8773 21.352 14.8773 21.5515C14.8773 22.2365 14.3219 22.7919 13.6369 22.7919C13.4374 22.7919 13.249 22.7447 13.082 22.6611C13.2857 23.0675 13.706 23.3466 14.1916 23.3466C14.8767 23.3466 15.4321 22.7913 15.4321 22.1062C15.4321 21.6206 15.153 21.2002 14.7465 20.9966Z" fill="url(#paint11_linear_96_1208)"/>
<path d="M23.0492 22.1062C23.0492 22.7912 22.4939 23.3466 21.8087 23.3466C21.1237 23.3466 20.5684 22.7912 20.5684 22.1062C20.5684 21.4211 21.1237 20.8657 21.8087 20.8657C22.4938 20.8658 23.0492 21.4211 23.0492 22.1062Z" fill="url(#paint12_linear_96_1208)"/>
<path d="M22.3637 20.9966C22.4473 21.1635 22.4945 21.352 22.4945 21.5515C22.4945 22.2365 21.9391 22.7919 21.2541 22.7919C21.0546 22.7919 20.8662 22.7447 20.6992 22.6611C20.9029 23.0675 21.3232 23.3466 21.8088 23.3466C22.4939 23.3466 23.0492 22.7913 23.0492 22.1062C23.0492 21.6206 22.7701 21.2002 22.3637 20.9966Z" fill="url(#paint13_linear_96_1208)"/>
<path d="M19.7088 25.7375C18.626 25.232 17.375 25.232 16.2922 25.7375C16.0121 25.8682 15.8869 26.1992 16.0129 26.4814C16.3013 27.1273 16.9258 28.1429 18.0005 28.1429C19.0752 28.1429 19.6996 27.1273 19.988 26.4814C20.1141 26.1992 19.9888 25.8683 19.7088 25.7375Z" fill="url(#paint14_linear_96_1208)"/>
<path d="M18.0004 24.6566C18.6149 24.6566 19.1131 24.2276 19.1131 23.6984C19.1131 23.1692 18.6149 22.7402 18.0004 22.7402C17.3859 22.7402 16.8877 23.1692 16.8877 23.6984C16.8877 24.2276 17.3859 24.6566 18.0004 24.6566Z" fill="url(#paint15_linear_96_1208)"/>
</g>
<defs>
<linearGradient id="paint0_linear_96_1208" x1="10.6327" y1="10.6327" x2="21.6979" y2="21.6979" gradientUnits="userSpaceOnUse">
<stop stop-color="#2F73A0"/>
<stop offset="1" stop-color="#174461"/>
</linearGradient>
<linearGradient id="paint1_linear_96_1208" x1="8.92294" y1="8.92249" x2="27.9185" y2="27.9181" gradientUnits="userSpaceOnUse">
<stop stop-color="#7ACBFF"/>
<stop offset="1" stop-color="#45A2E0"/>
</linearGradient>
<linearGradient id="paint2_linear_96_1208" x1="30.4091" y1="30.4091" x2="4.5976" y2="4.5976" gradientUnits="userSpaceOnUse">
<stop stop-color="#7ACBFF"/>
<stop offset="1" stop-color="#45A2E0"/>
</linearGradient>
<linearGradient id="paint3_linear_96_1208" x1="29.4772" y1="25.1953" x2="18.8285" y2="19.3035" gradientUnits="userSpaceOnUse">
<stop stop-color="#2F73A0" stop-opacity="0"/>
<stop offset="1" stop-color="#2F73A0"/>
</linearGradient>
<linearGradient id="paint4_linear_96_1208" x1="9.20312" y1="19.1517" x2="11.2493" y2="23.7406" gradientUnits="userSpaceOnUse">
<stop stop-color="#FFDECF"/>
<stop offset="1" stop-color="#FAA68E"/>
</linearGradient>
<linearGradient id="paint5_linear_96_1208" x1="25.6944" y1="19.1517" x2="27.7405" y2="23.7406" gradientUnits="userSpaceOnUse">
<stop stop-color="#FFDECF"/>
<stop offset="1" stop-color="#FAA68E"/>
</linearGradient>
<linearGradient id="paint6_linear_96_1208" x1="17.4621" y1="18.4063" x2="26.233" y2="27.1772" gradientUnits="userSpaceOnUse">
<stop stop-color="#FFDECF"/>
<stop offset="1" stop-color="#FAA68E"/>
</linearGradient>
<linearGradient id="paint7_linear_96_1208" x1="18.8082" y1="21.6986" x2="16.9417" y2="11.5048" gradientUnits="userSpaceOnUse">
<stop stop-color="#FF9356" stop-opacity="0"/>
<stop offset="1" stop-color="#FF4181"/>
</linearGradient>
<linearGradient id="paint8_linear_96_1208" x1="16.704" y1="10.1194" x2="21.2804" y2="22.5026" gradientUnits="userSpaceOnUse">
<stop stop-color="#5A7587"/>
<stop offset="1" stop-color="#092A40"/>
</linearGradient>
<linearGradient id="paint9_linear_96_1208" x1="12.003" y1="13.5445" x2="17.6023" y2="18.2286" gradientUnits="userSpaceOnUse">
<stop stop-color="#092A40" stop-opacity="0"/>
<stop offset="1" stop-color="#092A40"/>
</linearGradient>
<linearGradient id="paint10_linear_96_1208" x1="13.7275" y1="21.6421" x2="15.334" y2="23.2486" gradientUnits="userSpaceOnUse">
<stop stop-color="#5A7587"/>
<stop offset="1" stop-color="#092A40"/>
</linearGradient>
<linearGradient id="paint11_linear_96_1208" x1="14.2347" y1="22.5816" x2="15.9397" y2="19.4105" gradientUnits="userSpaceOnUse">
<stop stop-color="#092A40" stop-opacity="0"/>
<stop offset="1" stop-color="#092A40"/>
</linearGradient>
<linearGradient id="paint12_linear_96_1208" x1="21.3447" y1="21.6421" x2="22.9512" y2="23.2486" gradientUnits="userSpaceOnUse">
<stop stop-color="#5A7587"/>
<stop offset="1" stop-color="#092A40"/>
</linearGradient>
<linearGradient id="paint13_linear_96_1208" x1="21.8519" y1="22.5816" x2="23.5569" y2="19.4105" gradientUnits="userSpaceOnUse">
<stop stop-color="#092A40" stop-opacity="0"/>
<stop offset="1" stop-color="#092A40"/>
</linearGradient>
<linearGradient id="paint14_linear_96_1208" x1="17.6759" y1="25.7246" x2="18.9493" y2="27.8894" gradientUnits="userSpaceOnUse">
<stop stop-color="#FF755C"/>
<stop offset="1" stop-color="#FF4181"/>
</linearGradient>
<linearGradient id="paint15_linear_96_1208" x1="18.0004" y1="24.0866" x2="18.0004" y2="21.044" gradientUnits="userSpaceOnUse">
<stop stop-color="#FF9356" stop-opacity="0"/>
<stop offset="1" stop-color="#FF4181"/>
</linearGradient>
<clipPath id="clip0_96_1208">
<rect width="36" height="36" fill="white"/>
</clipPath>
</defs>
</svg>
