<svg width="36" height="36" viewBox="0 0 36 36" fill="none" xmlns="http://www.w3.org/2000/svg">
<g clip-path="url(#clip0_96_1364)">
<path d="M35.3837 6.43909C35.056 3.36896 32.6313 0.943726 29.5609 0.616333C21.8611 -0.205444 14.1389 -0.205444 6.43936 0.616333C3.36896 0.944 0.944 3.36896 0.616333 6.43909C-0.205444 14.1386 -0.205444 21.8611 0.616333 29.5606C0.944 32.631 3.36896 35.056 6.43909 35.3837C14.1386 36.2054 21.8611 36.2054 29.5609 35.3837C32.6313 35.056 35.056 32.631 35.3837 29.5606C36.2054 21.8611 36.2054 14.1389 35.3837 6.43909V6.43909Z" fill="url(#paint0_radial_96_1364)"/>
<path d="M33.4256 7.7412C33.135 5.01686 30.9833 2.86491 28.2587 2.57405C21.4263 1.84511 14.5736 1.84511 7.7412 2.57405C5.01686 2.86491 2.86491 5.01686 2.57405 7.7412C1.84511 14.5736 1.84511 21.4263 2.57405 28.2584C2.86491 30.983 5.01686 33.135 7.7412 33.4256C14.5736 34.1548 21.4263 34.1548 28.2584 33.4256C30.983 33.135 33.135 30.983 33.4256 28.2584C34.1548 21.4263 34.1548 14.5736 33.4256 7.7412V7.7412Z" fill="url(#paint1_linear_96_1364)"/>
<path d="M0.539062 28.8145C0.563782 29.0633 0.589325 29.3121 0.615967 29.561C0.943634 32.6311 3.36859 35.0561 6.439 35.3837C14.1385 36.2055 21.8611 36.2055 29.5605 35.3837C32.631 35.0561 35.0556 32.6311 35.3833 29.561C35.4099 29.3121 35.4355 29.0633 35.4605 28.8145H0.539062Z" fill="url(#paint2_linear_96_1364)"/>
<path d="M35.3832 29.5608C35.8249 25.4236 36.0287 21.2799 35.9957 17.1366L27.7669 8.90788C26.7389 7.73426 25.2373 7.00175 23.4729 6.9383C19.8444 6.80757 16.2044 6.81416 12.5753 6.93885C9.56122 7.04267 7.45349 9.06855 6.91296 12.0461C6.81766 12.5718 6.76053 13.1044 6.68555 13.6339V22.3631C6.72702 22.646 6.78799 22.9275 6.80695 23.2121C6.9278 25.0232 7.67212 26.5744 8.86386 27.6239L17.2376 35.9974C21.3471 36.0263 25.4568 35.8219 29.5605 35.3838C32.6309 35.0562 35.0555 32.6312 35.3832 29.5608V29.5608Z" fill="url(#paint3_linear_96_1364)"/>
<path d="M35.3834 29.5608C35.056 32.6306 32.6305 35.0562 29.5606 35.3835C25.4575 35.8214 21.347 36.026 17.2381 35.9971L8.87695 27.636C9.84622 28.4844 11.1096 29.001 12.5758 29.0562C16.204 29.1925 19.8449 29.1889 23.4731 29.0582C26.7547 28.9395 29.1294 26.5107 29.2319 23.2291C29.3412 19.7448 29.3412 16.2514 29.2319 12.7671C29.1852 11.2532 28.6537 9.92108 27.7726 8.91309L35.9962 17.1366C36.0286 21.2793 35.8248 25.4236 35.3834 29.5608Z" fill="url(#paint4_linear_96_1364)"/>
<path d="M22.2474 14.1018C21.1933 12.954 19.6808 12.2339 17.9996 12.2339C14.8152 12.2339 12.2334 14.8157 12.2334 18.0001C12.2334 19.6812 12.9536 21.1938 14.1013 22.2479L27.4423 35.5889C28.1485 35.5274 28.8546 35.459 29.5602 35.3837C32.6306 35.0561 35.0556 32.6311 35.3832 29.5607C35.4585 28.8551 35.5269 28.149 35.5884 27.4428L22.2474 14.1018Z" fill="url(#paint5_linear_96_1364)"/>
<path d="M35.9307 21.878L25.1938 11.1413C24.9433 10.8125 24.5486 10.5991 24.1034 10.5991C23.3459 10.5991 22.7314 11.2133 22.7314 11.971C22.7314 12.4163 22.9449 12.8109 23.2736 13.0614L35.7387 25.5268C35.8233 24.3109 35.8873 23.0944 35.9307 21.878V21.878Z" fill="url(#paint6_linear_96_1364)"/>
<path d="M6.68555 13.6339C6.76053 13.1044 6.81766 12.5718 6.91296 12.0461C7.45322 9.06855 9.56122 7.04267 12.5753 6.93885C16.2044 6.81416 19.8444 6.80757 23.4729 6.9383C26.7534 7.05641 29.1292 9.48548 29.2317 12.7671C29.3407 16.2517 29.3407 19.7448 29.2317 23.2294C29.1292 26.511 26.7543 28.9398 23.4732 29.0582C19.8447 29.1892 16.2038 29.1925 12.5756 29.0563C9.29453 28.9329 7.0264 26.4984 6.80695 23.2118C6.78799 22.9275 6.72702 22.6457 6.68555 22.3628C6.68555 19.4531 6.68555 16.5434 6.68555 13.6339V13.6339ZM18.0026 27.1133C19.6631 27.1133 21.3254 27.163 22.9838 27.1018C25.584 27.0054 27.1833 25.4536 27.244 22.8558C27.3192 19.619 27.3192 16.3778 27.244 13.1406C27.1833 10.5435 25.5829 8.95539 22.9838 8.90019C19.6848 8.83042 16.3824 8.83097 13.0834 8.90019C10.5041 8.9543 8.90012 10.5102 8.83008 13.0788C8.74109 16.3566 8.74109 19.6401 8.83008 22.9179C8.90012 25.4862 10.5041 27.0062 13.0837 27.1018C14.7212 27.1628 16.3629 27.1133 18.0026 27.1133V27.1133Z" fill="url(#paint7_linear_96_1364)"/>
<path d="M6.68555 13.6339C6.76053 13.1044 6.81766 12.5718 6.91296 12.0461C7.45322 9.06855 9.56122 7.04267 12.5753 6.93885C16.2044 6.81416 19.8444 6.80757 23.4729 6.9383C26.7534 7.05641 29.1292 9.48548 29.2317 12.7671C29.3407 16.2517 29.3407 19.7448 29.2317 23.2294C29.1292 26.511 26.7543 28.9398 23.4732 29.0582C19.8447 29.1892 16.2038 29.1925 12.5756 29.0563C9.29453 28.9329 7.0264 26.4984 6.80695 23.2118C6.78799 22.9275 6.72702 22.6457 6.68555 22.3628C6.68555 19.4531 6.68555 16.5434 6.68555 13.6339V13.6339ZM18.0026 27.1133C19.6631 27.1133 21.3254 27.163 22.9838 27.1018C25.584 27.0054 27.1833 25.4536 27.244 22.8558C27.3192 19.619 27.3192 16.3778 27.244 13.1406C27.1833 10.5435 25.5829 8.95539 22.9838 8.90019C19.6848 8.83042 16.3824 8.83097 13.0834 8.90019C10.5041 8.9543 8.90012 10.5102 8.83008 13.0788C8.74109 16.3566 8.74109 19.6401 8.83008 22.9179C8.90012 25.4862 10.5041 27.0062 13.0837 27.1018C14.7212 27.1628 16.3629 27.1133 18.0026 27.1133V27.1133Z" fill="white"/>
<path d="M17.9996 12.2339C14.8152 12.2339 12.2334 14.8154 12.2334 17.9998C12.2334 21.1844 14.8152 23.766 17.9996 23.766C21.1842 23.766 23.7657 21.1844 23.7657 17.9998C23.7657 14.8154 21.1842 12.2339 17.9996 12.2339ZM17.9996 21.7807C15.9113 21.7807 14.2186 20.088 14.2186 17.9998C14.2186 15.9116 15.9113 14.2188 17.9996 14.2188C20.0878 14.2188 21.7805 15.9116 21.7805 17.9998C21.7805 20.088 20.0878 21.7807 17.9996 21.7807Z" fill="white"/>
<path d="M25.474 11.971C25.474 12.7285 24.8599 13.3427 24.1024 13.3427C23.3449 13.3427 22.7305 12.7285 22.7305 11.971C22.7305 11.2133 23.3449 10.5991 24.1024 10.5991C24.8599 10.5991 25.474 11.2133 25.474 11.971Z" fill="white"/>
</g>
<defs>
<radialGradient id="paint0_radial_96_1364" cx="0" cy="0" r="1" gradientUnits="userSpaceOnUse" gradientTransform="translate(7.3798 31.4611) scale(39.7017)">
<stop stop-color="#FAE100"/>
<stop offset="0.0544" stop-color="#FADC04"/>
<stop offset="0.1167" stop-color="#FBCE0E"/>
<stop offset="0.1829" stop-color="#FCB720"/>
<stop offset="0.2514" stop-color="#FE9838"/>
<stop offset="0.3054" stop-color="#FF7950"/>
<stop offset="0.4922" stop-color="#FF1C74"/>
<stop offset="1" stop-color="#6C1CD1"/>
</radialGradient>
<linearGradient id="paint1_linear_96_1364" x1="13.8074" y1="15.6417" x2="-47.1809" y2="-18.6642" gradientUnits="userSpaceOnUse">
<stop stop-color="#A1B5D8" stop-opacity="0"/>
<stop offset="0.3094" stop-color="#90A2BD" stop-opacity="0.309804"/>
<stop offset="0.7554" stop-color="#7C8B9C" stop-opacity="0.756863"/>
<stop offset="1" stop-color="#748290"/>
</linearGradient>
<linearGradient id="paint2_linear_96_1364" x1="17.9997" y1="31.7789" x2="17.9997" y2="37.3904" gradientUnits="userSpaceOnUse">
<stop stop-color="#FAE100" stop-opacity="0"/>
<stop offset="0.3068" stop-color="#FCA800" stop-opacity="0.305882"/>
<stop offset="0.6275" stop-color="#FE7300" stop-opacity="0.627451"/>
<stop offset="0.8685" stop-color="#FF5200" stop-opacity="0.866667"/>
<stop offset="1" stop-color="#FF4500"/>
</linearGradient>
<linearGradient id="paint3_linear_96_1364" x1="15.9515" y1="15.9012" x2="7.04209" y2="6.99177" gradientUnits="userSpaceOnUse">
<stop stop-color="#833AB4" stop-opacity="0"/>
<stop offset="1" stop-color="#833AB4"/>
</linearGradient>
<linearGradient id="paint4_linear_96_1364" x1="24.6723" y1="32.9263" x2="20.2255" y2="11.9627" gradientUnits="userSpaceOnUse">
<stop stop-color="#833AB4" stop-opacity="0"/>
<stop offset="1" stop-color="#833AB4"/>
</linearGradient>
<linearGradient id="paint5_linear_96_1364" x1="26.3643" y1="26.3648" x2="8.50324" y2="8.50372" gradientUnits="userSpaceOnUse">
<stop stop-color="#833AB4" stop-opacity="0"/>
<stop offset="1" stop-color="#833AB4"/>
</linearGradient>
<linearGradient id="paint6_linear_96_1364" x1="27.69" y1="15.5576" x2="21.7837" y2="9.65132" gradientUnits="userSpaceOnUse">
<stop stop-color="#833AB4" stop-opacity="0"/>
<stop offset="1" stop-color="#833AB4"/>
</linearGradient>
<linearGradient id="paint7_linear_96_1364" x1="25.1474" y1="10.9021" x2="10.5846" y2="25.4649" gradientUnits="userSpaceOnUse">
<stop stop-color="#833AB4"/>
<stop offset="0.0922" stop-color="#9C3495"/>
<stop offset="0.2927" stop-color="#DC2546"/>
<stop offset="0.392" stop-color="#FD1D1D"/>
<stop offset="0.5589" stop-color="#FC6831"/>
<stop offset="0.6887" stop-color="#FC9B40"/>
<stop offset="0.7521" stop-color="#FCAF45"/>
<stop offset="0.7806" stop-color="#FDB750"/>
<stop offset="0.8656" stop-color="#FECB6A"/>
<stop offset="0.9415" stop-color="#FFD87A"/>
<stop offset="1" stop-color="#FFDC80"/>
</linearGradient>
<clipPath id="clip0_96_1364">
<rect width="36" height="36" fill="white"/>
</clipPath>
</defs>
</svg>
