<svg width="36" height="37" viewBox="0 0 36 37" fill="none" xmlns="http://www.w3.org/2000/svg">
<circle cx="18" cy="18.5" r="18" fill="#FFD43B"/>
<circle cx="18" cy="18.5" r="18" fill="url(#paint0_linear_96_1267)"/>
<g clip-path="url(#clip0_96_1267)">
<path d="M26.3013 22.8981L23.755 20.3507C23.4131 20.0105 22.9552 19.8231 22.4659 19.8231C21.9567 19.8231 21.4759 20.0236 21.1124 20.3873L20.1212 21.3782C19.351 20.9502 18.3274 20.3614 17.2646 19.2986C16.203 18.2367 15.6142 17.216 15.1839 16.4416L16.176 15.4503C16.9136 14.7111 16.9287 13.5253 16.2097 12.807L13.664 10.2612C13.323 9.91928 12.8651 9.73096 12.3746 9.73096C11.8767 9.73096 11.4058 9.92263 11.0444 10.2715C10.8257 10.4476 9.72855 11.4161 9.31962 13.4136C8.74709 16.2095 10.0626 18.8995 13.8601 22.6986C18.1023 26.9395 21.7239 27.2691 22.7328 27.2691C22.9429 27.2691 23.0696 27.2561 23.1034 27.2522C25.0819 27.0203 25.7903 26.1417 26.3075 25.5001C26.9777 24.6687 26.9753 23.5746 26.3013 22.8981ZM25.4564 24.814C24.9702 25.417 24.5111 25.9865 22.9763 26.1664C22.9755 26.1665 22.8915 26.1759 22.7328 26.1759C21.8302 26.1759 18.5782 25.8693 14.6332 21.9256C11.1311 18.4221 9.90193 16.0195 10.3906 13.6328C10.7472 11.8906 11.6942 11.1501 11.731 11.1219L11.7636 11.0978L11.7923 11.0691C11.9503 10.9112 12.1571 10.8241 12.3745 10.8241C12.5724 10.8241 12.7555 10.8983 12.8905 11.0337L15.4368 13.5801C15.7298 13.8728 15.7142 14.3653 15.4025 14.6777L14.2805 15.7987L14.2621 15.818C13.9697 16.1401 14.0041 16.5753 14.1651 16.8587C14.6299 17.6974 15.2665 18.8461 16.4914 20.0714C17.7123 21.2922 18.8593 21.9283 19.6956 22.3922C19.7794 22.4392 19.9522 22.5181 20.1686 22.5181C20.4241 22.5181 20.6587 22.4099 20.8324 22.2128L21.8853 21.1601C22.0425 21.0028 22.2486 20.9162 22.4657 20.9162C22.6641 20.9162 22.8481 20.9906 22.9828 21.1246L25.5274 23.6702C25.8506 23.9946 25.7172 24.4905 25.4564 24.814Z" fill="white"/>
<path d="M19.864 12.4095C20.8032 12.5176 21.9091 13.0864 22.6813 13.8587C23.4607 14.6382 24.031 15.7553 24.134 16.7047C24.1644 16.9847 24.4012 17.1923 24.6767 17.1923C24.6964 17.1923 24.7164 17.1912 24.7363 17.1891C25.0364 17.1565 25.2533 16.8869 25.2208 16.5867C25.0905 15.3867 24.4136 14.0452 23.4543 13.0858C22.504 12.1354 21.1762 11.4602 19.989 11.3235C19.6893 11.2887 19.4181 11.5042 19.3835 11.804C19.349 12.1038 19.564 12.3749 19.864 12.4095Z" fill="white"/>
<path d="M19.3533 14.6991C19.8613 14.7576 20.5643 15.1344 21.0248 15.595C21.4893 16.0595 21.8668 16.7692 21.9224 17.2826C21.9528 17.5628 22.1896 17.7703 22.4651 17.7703C22.4848 17.7703 22.5047 17.7692 22.5247 17.7671C22.8248 17.7345 23.0417 17.4649 23.0092 17.1648C22.9141 16.2882 22.3322 15.3564 21.7977 14.8219C21.268 14.2922 20.3454 13.713 19.4783 13.6131C19.1781 13.5782 18.9073 13.7937 18.8728 14.0935C18.8383 14.3934 19.0534 14.6646 19.3533 14.6991Z" fill="white"/>
</g>
<defs>
<linearGradient id="paint0_linear_96_1267" x1="39.1099" y1="18.5" x2="-1.811" y2="19.2178" gradientUnits="userSpaceOnUse">
<stop stop-color="#FFBE16"/>
<stop offset="1" stop-color="white" stop-opacity="0"/>
</linearGradient>
<clipPath id="clip0_96_1267">
<rect width="17.617" height="17.617" fill="white" transform="translate(9.19141 9.69141)"/>
</clipPath>
</defs>
</svg>
