<svg width="18" height="19" viewBox="0 0 18 19" fill="none" xmlns="http://www.w3.org/2000/svg">
<path d="M17.3013 13.8982L14.755 11.3508C14.4131 11.0106 13.9552 10.8232 13.4659 10.8232C12.9567 10.8232 12.4759 11.0237 12.1124 11.3874L11.1212 12.3784C10.351 11.9503 9.32739 11.3615 8.26459 10.2987C7.20304 9.23678 6.61418 8.21611 6.1839 7.44177L7.176 6.4504C7.91361 5.71126 7.92869 4.52545 7.20974 3.80715L4.66401 1.26135C4.32301 0.919398 3.86511 0.731079 3.37456 0.731079C2.87673 0.731079 2.40578 0.922751 2.04438 1.27162C1.82574 1.4477 0.728546 2.41626 0.319623 4.41372C-0.252914 7.20958 1.06255 9.89961 4.86013 13.6987C9.10234 17.9396 12.7239 18.2692 13.7328 18.2692C13.9429 18.2692 14.0696 18.2563 14.1034 18.2523C16.0819 18.0204 16.7903 17.1418 17.3075 16.5003C17.9777 15.6688 17.9753 14.5747 17.3013 13.8982ZM16.4564 15.8141C15.9702 16.4171 15.5111 16.9866 13.9763 17.1665C13.9755 17.1666 13.8915 17.176 13.7328 17.176C12.8302 17.176 9.57816 16.8695 5.63315 12.9257C2.1311 9.42218 0.901925 7.01958 1.39058 4.63294C1.74725 2.8907 2.69416 2.15018 2.73097 2.12205L2.76362 2.09792L2.79226 2.06921C2.95033 1.91128 3.15709 1.82426 3.37449 1.82426C3.57243 1.82426 3.7555 1.89845 3.89047 2.03386L6.43679 4.58025C6.72976 4.87293 6.71417 5.36545 6.40246 5.67781L5.28049 6.79883L5.26205 6.81815C4.96966 7.1402 5.00406 7.57543 5.16512 7.85886C5.62987 8.69755 6.26647 9.84619 7.49142 11.0715C8.71229 12.2924 9.85926 12.9285 10.6956 13.3923C10.7794 13.4393 10.9522 13.5182 11.1686 13.5182C11.4241 13.5182 11.6587 13.41 11.8324 13.2129L12.8853 12.1602C13.0425 12.003 13.2486 11.9163 13.4657 11.9163C13.6641 11.9163 13.8481 11.9907 13.9828 12.1247L16.5274 14.6703C16.8506 14.9947 16.7172 15.4907 16.4564 15.8141Z" fill="white"/>
<path d="M10.864 3.40947C11.8032 3.51755 12.9091 4.08645 13.6813 4.85874C14.4607 5.63818 15.031 6.75527 15.134 7.70467C15.1644 7.98474 15.4012 8.1923 15.6767 8.1923C15.6964 8.1923 15.7164 8.19121 15.7363 8.18909C16.0364 8.15651 16.2533 7.88686 16.2208 7.58675C16.0905 6.38665 15.4136 5.04517 14.4543 4.08579C13.504 3.13538 12.1762 2.46015 10.989 2.3235C10.6893 2.28874 10.4181 2.50417 10.3835 2.804C10.349 3.10382 10.564 3.37493 10.864 3.40947Z" fill="white"/>
<path d="M10.3533 5.69925C10.8613 5.75777 11.5643 6.13455 12.0248 6.59507C12.4893 7.0596 12.8668 7.7693 12.9224 8.28273C12.9528 8.56288 13.1896 8.77044 13.4651 8.77044C13.4848 8.77044 13.5047 8.76934 13.5247 8.76723C13.8248 8.73465 14.0417 8.465 14.0092 8.16489C13.9141 7.2883 13.3322 6.35654 12.7977 5.82205C12.268 5.29229 11.3454 4.71312 10.4783 4.61321C10.1781 4.5783 9.90731 4.7938 9.87277 5.09362C9.8383 5.39352 10.0534 5.6647 10.3533 5.69925Z" fill="white"/>
</svg>
