<svg width="44" height="147" viewBox="0 0 44 147" fill="none" xmlns="http://www.w3.org/2000/svg">
<line x1="22.5" y1="49" x2="22.5" y2="111" stroke="black"/>
<path d="M22.0003 119C16.5641 119 12.1416 123.492 12.1416 129.013V136.987C12.1416 142.508 16.5641 147 22.0003 147C27.4362 147 31.8591 142.522 31.8591 137.018V129.013C31.8591 123.492 27.4362 119 22.0003 119ZM30.0047 137.018C30.0047 141.5 26.4142 145.146 22.0003 145.146C17.5868 145.146 13.9959 141.486 13.9959 136.987V129.013C13.9959 124.514 17.5868 120.854 22.0003 120.854C26.4142 120.854 30.0047 124.514 30.0047 129.013V137.018Z" fill="black"/>
<path d="M22.0004 126.664C21.4883 126.664 21.0732 127.08 21.0732 127.592V130.837C21.0732 131.349 21.4883 131.764 22.0004 131.764C22.5125 131.764 22.9276 131.349 22.9276 130.837V127.592C22.9276 127.08 22.5125 126.664 22.0004 126.664Z" fill="black"/>
<line x1="14.3536" y1="30.6464" x2="30.3536" y2="46.6464" stroke="black"/>
<line x1="14.3536" y1="22.6464" x2="30.3536" y2="38.6464" stroke="black"/>
<path d="M1.752 5.688L1.644 7.944C1.56 9.612 1.464 11.304 0.42 11.304C0.336 11.304 0.228 11.28 0.12 11.256L0.06 11.988C0.288 12.048 0.48 12.084 0.672 12.084C2.028 12.084 2.304 10.212 2.412 8.004L2.496 6.444H5.52V12H6.372V5.688H1.752ZM8.79403 12H9.56203L13.762 6.984V12H14.614V5.688H13.858L9.64603 10.704V5.688H8.79403V12ZM19.6958 12.06C20.7638 12.06 21.6638 11.628 22.1678 10.812L21.5318 10.38C21.0998 11.016 20.4278 11.304 19.6958 11.304C18.3158 11.304 17.3078 10.332 17.3078 8.844C17.3078 7.368 18.3158 6.384 19.6958 6.384C20.4278 6.384 21.0998 6.684 21.5318 7.32L22.1678 6.888C21.6638 6.06 20.7638 5.64 19.6958 5.64C17.8118 5.64 16.4438 6.96 16.4438 8.844C16.4438 10.728 17.8118 12.06 19.6958 12.06ZM28.1403 5.688H22.5123V6.444H24.9003V12H25.7523V6.444H28.1403V5.688ZM31.5442 5.64C30.5482 5.64 29.6122 5.952 28.9762 6.492L29.3602 7.128C29.8762 6.672 30.6442 6.384 31.4602 6.384C32.6362 6.384 33.2482 6.972 33.2482 8.052V8.436H31.2442C29.4322 8.436 28.8082 9.252 28.8082 10.224C28.8082 11.316 29.6842 12.06 31.1122 12.06C32.1562 12.06 32.9002 11.664 33.2842 11.016V12H34.1002V8.088C34.1002 6.456 33.1762 5.64 31.5442 5.64ZM31.2442 11.388C30.2362 11.388 29.6482 10.932 29.6482 10.2C29.6482 9.552 30.0442 9.072 31.2682 9.072H33.2482V10.104C32.9122 10.932 32.2042 11.388 31.2442 11.388ZM39.2363 4.788C40.3043 4.788 41.0123 4.236 41.0363 3.228H40.4243C40.4003 3.864 39.9203 4.26 39.2363 4.26C38.5523 4.26 38.0723 3.864 38.0603 3.228H37.4483C37.4723 4.236 38.1683 4.788 39.2363 4.788ZM36.3683 12H37.1363L41.3363 6.984V12H42.1883V5.688H41.4323L37.2203 10.704V5.688H36.3683V12Z" fill="black"/>
</svg>
