<svg width="36" height="36" viewBox="0 0 36 36" fill="none" xmlns="http://www.w3.org/2000/svg">
<g clip-path="url(#clip0_96_1377)">
<path d="M18 36C27.9411 36 36 27.9411 36 18C36 8.05888 27.9411 0 18 0C8.05888 0 0 8.05888 0 18C0 27.9411 8.05888 36 18 36Z" fill="#0056B0"/>
<path d="M18 36C27.9411 36 36 27.9411 36 18C36 8.05888 27.9411 0 18 0C8.05888 0 0 8.05888 0 18C0 27.9411 8.05888 36 18 36Z" fill="url(#paint0_linear_96_1377)"/>
<g filter="url(#filter0_d_96_1377)">
<path fill-rule="evenodd" clip-rule="evenodd" d="M17.3197 25.8945H18.7325C18.7325 25.8945 19.1593 25.8476 19.3771 25.6127C19.5777 25.3971 19.5713 24.9922 19.5713 24.9922C19.5713 24.9922 19.5437 23.0965 20.4235 22.8173C21.2908 22.5424 22.4045 24.6495 23.585 25.4597C24.4776 26.0729 25.156 25.9384 25.156 25.9384L28.3123 25.8945C28.3123 25.8945 29.9635 25.7927 29.1806 24.4945C29.1164 24.3883 28.7246 23.5342 26.8338 21.779C24.8547 19.9421 25.1197 20.2392 27.5037 17.0616C28.9557 15.1265 29.5361 13.9451 29.3548 13.439C29.1819 12.9571 28.114 13.0845 28.114 13.0845L24.5601 13.1066C24.5601 13.1066 24.2967 13.0707 24.1013 13.1875C23.9103 13.302 23.7875 13.569 23.7875 13.569C23.7875 13.569 23.225 15.0665 22.4748 16.34C20.8923 19.0273 20.2595 19.1691 20.0009 19.0022C19.3993 18.6133 19.5494 17.4399 19.5494 16.6063C19.5494 14.0022 19.9444 12.9164 18.7803 12.6353C18.394 12.5419 18.1097 12.4803 17.1218 12.4703C15.8537 12.4572 14.7804 12.4742 14.1727 12.772C13.7684 12.9699 13.4565 13.4111 13.6464 13.4365C13.8813 13.4679 14.4133 13.5799 14.6954 13.964C15.0595 14.4594 15.0467 15.5722 15.0467 15.5722C15.0467 15.5722 15.2559 18.6377 14.558 19.0186C14.079 19.2798 13.4218 18.7465 12.011 16.3086C11.2881 15.0597 10.7423 13.6794 10.7423 13.6794C10.7423 13.6794 10.637 13.4214 10.4493 13.2834C10.2215 13.1163 9.90322 13.063 9.90322 13.063L6.52609 13.0851C6.52609 13.0851 6.01912 13.0992 5.83302 13.3197C5.66745 13.5157 5.81986 13.9213 5.81986 13.9213C5.81986 13.9213 8.46381 20.107 11.4575 23.2242C14.2025 26.0822 17.3197 25.8945 17.3197 25.8945Z" fill="white"/>
</g>
</g>
<defs>
<filter id="filter0_d_96_1377" x="5.75586" y="12.4673" width="23.6357" height="15.4834" filterUnits="userSpaceOnUse" color-interpolation-filters="sRGB">
<feFlood flood-opacity="0" result="BackgroundImageFix"/>
<feColorMatrix in="SourceAlpha" type="matrix" values="0 0 0 0 0 0 0 0 0 0 0 0 0 0 0 0 0 0 127 0" result="hardAlpha"/>
<feOffset dy="2"/>
<feColorMatrix type="matrix" values="0 0 0 0 0.184413 0 0 0 0 0.398981 0 0 0 0 0.720833 0 0 0 1 0"/>
<feBlend mode="normal" in2="BackgroundImageFix" result="effect1_dropShadow_96_1377"/>
<feBlend mode="normal" in="SourceGraphic" in2="effect1_dropShadow_96_1377" result="shape"/>
</filter>
<linearGradient id="paint0_linear_96_1377" x1="10.5" y1="-5.5" x2="18" y2="36" gradientUnits="userSpaceOnUse">
<stop stop-color="#0081F8"/>
<stop offset="1" stop-color="white" stop-opacity="0"/>
</linearGradient>
<clipPath id="clip0_96_1377">
<rect width="36" height="36" fill="white"/>
</clipPath>
</defs>
</svg>
